<svg width="329" height="90" viewBox="0 0 329 90" fill="none" xmlns="http://www.w3.org/2000/svg">
<g filter="url(#filter0_d_4_20)">
<rect x="4" width="321" height="82" fill="black"/>
<rect x="4.5" y="0.5" width="320" height="81" stroke="black"/>
</g>
<circle cx="40" cy="41" r="31" fill="#030303" stroke="#F74C7C" stroke-width="2"/>
<path d="M20.1094 41.5L30.9062 45.875V48.9375L18.125 43.0156V41.2188L20.1094 41.5ZM30.9062 37.9062L20.125 42.3438L18.125 42.5625V40.75L30.9062 34.8438V37.9062ZM45.5469 29.25L36.0625 53.9531H33.5781L43.0781 29.25H45.5469ZM59.7188 42.125L48.6094 37.7969V34.8125L61.9531 40.7188V42.5469L59.7188 42.125ZM48.6094 45.9375L59.75 41.5156L61.9531 41.1875V43L48.6094 48.9219V45.9375Z" fill="white"/>
<path d="M85.496 50.192C84.0667 50.192 82.8827 49.9467 81.944 49.456C81.0267 48.9653 80.344 48.336 79.896 47.568C79.448 46.8 79.224 46.0107 79.224 45.2C79.224 44.4107 79.416 43.664 79.8 42.96C80.184 42.2347 80.728 41.6373 81.432 41.168C82.1573 40.6987 83.0107 40.464 83.992 40.464C83.9707 40.656 83.96 40.8373 83.96 41.008C83.96 41.1573 83.96 41.232 83.96 41.232C83.96 42.6613 84.0987 43.792 84.376 44.624C84.6533 45.4347 85.0053 46.0213 85.432 46.384C85.8587 46.7253 86.296 46.896 86.744 46.896C87.4267 46.896 88.0347 46.6293 88.568 46.096C89.1013 45.5413 89.368 44.9013 89.368 44.176C89.368 43.3653 89.016 42.6507 88.312 42.032C87.6293 41.4133 86.7547 40.7307 85.688 39.984C85.0907 39.536 84.4507 39.0347 83.768 38.48C83.1067 37.904 82.5413 37.232 82.072 36.464C81.6027 35.6747 81.368 34.7467 81.368 33.68C81.368 32.5707 81.624 31.5893 82.136 30.736C82.6693 29.8827 83.3627 29.168 84.216 28.592C85.0907 27.9947 86.04 27.5467 87.064 27.248C88.1093 26.928 89.144 26.768 90.168 26.768C91.4267 26.768 92.4613 26.9707 93.272 27.376C94.0827 27.7813 94.6907 28.304 95.096 28.944C95.5013 29.584 95.704 30.2453 95.704 30.928C95.704 31.568 95.5227 32.1867 95.16 32.784C94.8187 33.36 94.3067 33.8293 93.624 34.192C92.9413 34.5547 92.0987 34.736 91.096 34.736C91.16 34.4373 91.2027 34.1707 91.224 33.936C91.2453 33.68 91.256 33.456 91.256 33.264C91.256 32.1973 91.0213 31.44 90.552 30.992C90.104 30.5227 89.6027 30.288 89.048 30.288C88.5147 30.288 88.0027 30.4907 87.512 30.896C87.0213 31.28 86.776 31.9093 86.776 32.784C86.776 33.5307 86.968 34.1707 87.352 34.704C87.7573 35.2373 88.2693 35.7067 88.888 36.112C89.528 36.5173 90.2 36.912 90.904 37.296C91.6293 37.68 92.3227 38.1067 92.984 38.576C93.6667 39.024 94.232 39.5573 94.68 40.176C95.128 40.7947 95.352 41.5733 95.352 42.512C95.352 43.4933 95.0853 44.4533 94.552 45.392C94.0187 46.3093 93.2933 47.1307 92.376 47.856C91.4587 48.56 90.4027 49.1253 89.208 49.552C88.0347 49.9787 86.7973 50.192 85.496 50.192ZM103.09 50.192C101.66 50.192 100.476 49.9467 99.5378 49.456C98.6204 48.9653 97.9378 48.336 97.4898 47.568C97.0418 46.8 96.8178 46.0107 96.8178 45.2C96.8178 44.4107 97.0098 43.664 97.3938 42.96C97.7778 42.2347 98.3218 41.6373 99.0258 41.168C99.7511 40.6987 100.604 40.464 101.586 40.464C101.564 40.656 101.554 40.8373 101.554 41.008C101.554 41.1573 101.554 41.232 101.554 41.232C101.554 42.6613 101.692 43.792 101.97 44.624C102.247 45.4347 102.599 46.0213 103.026 46.384C103.452 46.7253 103.89 46.896 104.338 46.896C105.02 46.896 105.628 46.6293 106.162 46.096C106.695 45.5413 106.962 44.9013 106.962 44.176C106.962 43.3653 106.61 42.6507 105.906 42.032C105.223 41.4133 104.348 40.7307 103.282 39.984C102.684 39.536 102.044 39.0347 101.362 38.48C100.7 37.904 100.135 37.232 99.6658 36.464C99.1964 35.6747 98.9618 34.7467 98.9618 33.68C98.9618 32.5707 99.2178 31.5893 99.7298 30.736C100.263 29.8827 100.956 29.168 101.81 28.592C102.684 27.9947 103.634 27.5467 104.658 27.248C105.703 26.928 106.738 26.768 107.762 26.768C109.02 26.768 110.055 26.9707 110.866 27.376C111.676 27.7813 112.284 28.304 112.69 28.944C113.095 29.584 113.298 30.2453 113.298 30.928C113.298 31.568 113.116 32.1867 112.754 32.784C112.412 33.36 111.9 33.8293 111.218 34.192C110.535 34.5547 109.692 34.736 108.69 34.736C108.754 34.4373 108.796 34.1707 108.818 33.936C108.839 33.68 108.85 33.456 108.85 33.264C108.85 32.1973 108.615 31.44 108.146 30.992C107.698 30.5227 107.196 30.288 106.642 30.288C106.108 30.288 105.596 30.4907 105.106 30.896C104.615 31.28 104.37 31.9093 104.37 32.784C104.37 33.5307 104.562 34.1707 104.946 34.704C105.351 35.2373 105.863 35.7067 106.482 36.112C107.122 36.5173 107.794 36.912 108.498 37.296C109.223 37.68 109.916 38.1067 110.578 38.576C111.26 39.024 111.826 39.5573 112.274 40.176C112.722 40.7947 112.946 41.5733 112.946 42.512C112.946 43.4933 112.679 44.4533 112.146 45.392C111.612 46.3093 110.887 47.1307 109.97 47.856C109.052 48.56 107.996 49.1253 106.802 49.552C105.628 49.9787 104.391 50.192 103.09 50.192ZM116.701 50.192C115.826 50.192 115.101 49.9147 114.525 49.36C113.949 48.8053 113.661 48.1227 113.661 47.312C113.661 46.3947 113.991 45.616 114.653 44.976C115.335 44.3147 116.167 43.984 117.149 43.984C118.023 43.984 118.749 44.2613 119.325 44.816C119.922 45.3707 120.221 46.0533 120.221 46.864C120.221 47.7813 119.879 48.5707 119.197 49.232C118.514 49.872 117.682 50.192 116.701 50.192ZM129.375 50.224C128.543 50.224 127.7 50.128 126.847 49.936C125.993 49.744 125.204 49.4453 124.479 49.04C123.775 48.6133 123.199 48.0693 122.751 47.408C122.324 46.7253 122.111 45.9147 122.111 44.976C122.111 44.8693 122.111 44.7733 122.111 44.688C122.111 44.5813 122.121 44.4533 122.143 44.304C122.207 43.728 122.345 43.0133 122.559 42.16C122.793 41.3067 123.06 40.4 123.359 39.44C123.657 38.48 123.945 37.5307 124.223 36.592C124.521 35.6533 124.767 34.8 124.959 34.032C125.151 33.2427 125.247 32.6133 125.247 32.144C125.247 31.632 125.108 31.376 124.831 31.376C124.553 31.376 124.137 31.6427 123.583 32.176C123.028 32.7093 122.388 33.5947 121.663 34.832L121.471 34.768C121.471 33.04 121.855 31.568 122.623 30.352C123.412 29.1147 124.521 28.176 125.951 27.536C127.401 26.8747 129.108 26.544 131.071 26.544C132.905 26.544 134.484 26.8213 135.807 27.376C137.129 27.9093 138.207 28.6453 139.039 29.584C139.892 30.5227 140.521 31.6 140.927 32.816C141.332 34.0107 141.535 35.2693 141.535 36.592C141.535 38.192 141.247 39.8027 140.671 41.424C140.116 43.024 139.305 44.496 138.239 45.84C137.193 47.1627 135.913 48.2293 134.399 49.04C132.905 49.8293 131.231 50.224 129.375 50.224ZM129.919 46C130.772 46 131.54 45.7547 132.223 45.264C132.927 44.752 133.535 44.08 134.047 43.248C134.559 42.416 134.953 41.4987 135.231 40.496C135.508 39.472 135.647 38.448 135.647 37.424C135.647 36.208 135.433 35.0667 135.007 34C134.601 32.9333 133.94 32.0693 133.023 31.408C132.105 30.7467 130.911 30.416 129.439 30.416C129.545 30.8213 129.62 31.2373 129.663 31.664C129.727 32.0907 129.759 32.528 129.759 32.976C129.759 33.9573 129.663 34.96 129.47 35.984C129.3 37.008 129.097 38 128.863 38.96C128.649 39.92 128.447 40.816 128.255 41.648C128.084 42.48 127.999 43.216 127.999 43.856C127.999 44.5173 128.137 45.04 128.415 45.424C128.692 45.808 129.193 46 129.919 46ZM148.908 50.224C147.478 50.224 146.294 49.968 145.356 49.456C144.417 48.9227 143.724 48.24 143.276 47.408C142.828 46.5547 142.604 45.6373 142.604 44.656C142.604 43.7813 142.774 42.9173 143.116 42.064C143.457 41.2107 143.958 40.432 144.62 39.728C145.302 39.024 146.124 38.4693 147.084 38.064C146.209 37.5093 145.548 36.848 145.1 36.08C144.673 35.2907 144.46 34.4693 144.46 33.616C144.46 32.5067 144.822 31.4293 145.548 30.384C146.273 29.3387 147.329 28.4747 148.716 27.792C150.102 27.1093 151.766 26.768 153.708 26.768C155.052 26.768 156.118 26.9387 156.908 27.28C157.718 27.6 158.305 28.0267 158.668 28.56C159.03 29.072 159.212 29.6267 159.212 30.224C159.212 30.9067 158.998 31.5893 158.572 32.272C158.145 32.9333 157.526 33.4773 156.716 33.904C155.926 34.3307 154.956 34.544 153.804 34.544C154.145 33.5413 154.316 32.7093 154.316 32.048C154.316 31.3867 154.177 30.9067 153.9 30.608C153.622 30.3093 153.281 30.16 152.876 30.16C152.449 30.16 151.99 30.32 151.5 30.64C151.03 30.96 150.636 31.408 150.316 31.984C149.996 32.56 149.836 33.232 149.836 34C149.836 34.4053 149.9 34.864 150.028 35.376C150.156 35.8667 150.358 36.3573 150.635 36.848C151.105 36.5493 151.532 36.336 151.916 36.208C152.321 36.0587 152.684 35.984 153.004 35.984C153.665 35.984 154.145 36.2187 154.444 36.688C154.742 37.136 154.892 37.648 154.892 38.224C154.892 38.9067 154.678 39.5573 154.252 40.176C153.846 40.7947 153.238 41.104 152.428 41.104C151.681 41.104 150.806 40.752 149.804 40.048C148.63 40.88 148.044 41.8613 148.044 42.992C148.044 43.8667 148.31 44.528 148.844 44.976C149.398 45.424 150.102 45.648 150.956 45.648C152.044 45.648 153.26 45.2747 154.604 44.528C155.948 43.76 157.142 42.6187 158.188 41.104L158.444 41.264C158.401 42.7573 158.092 44.0693 157.516 45.2C156.961 46.3093 156.225 47.2373 155.308 47.984C154.412 48.7307 153.409 49.296 152.3 49.68C151.19 50.0427 150.06 50.224 148.908 50.224ZM169.073 50.128C168.454 50.1493 167.835 50.096 167.217 49.968C166.598 49.84 166.075 49.5733 165.649 49.168C165.67 48.6347 165.659 47.8453 165.617 46.8C165.595 45.7547 165.542 44.592 165.457 43.312C165.371 42.0107 165.233 40.6987 165.041 39.376C164.87 38.0533 164.635 36.8373 164.337 35.728C164.059 34.5973 163.718 33.6907 163.312 33.008C162.907 32.3253 162.427 31.984 161.873 31.984C161.382 31.984 160.827 32.2507 160.209 32.784L159.985 32.592C160.582 30.7573 161.361 29.36 162.321 28.4C163.302 27.44 164.315 26.96 165.361 26.96C166.278 26.96 167.046 27.28 167.665 27.92C168.283 28.56 168.774 29.424 169.137 30.512C169.521 31.5787 169.787 32.784 169.937 34.128C170.107 35.4507 170.193 36.8053 170.193 38.192C170.193 39.3013 170.15 40.3893 170.065 41.456C169.979 42.5227 169.862 43.504 169.713 44.4C170.843 42.9707 171.793 41.4133 172.561 39.728C173.329 38.0213 173.915 36.336 174.321 34.672C174.726 32.9867 174.929 31.472 174.929 30.128C174.929 29.872 174.918 29.616 174.897 29.36C174.875 29.0827 174.843 28.8373 174.801 28.624C175.249 28.048 175.825 27.6107 176.529 27.312C177.233 26.992 177.937 26.832 178.641 26.832C179.323 26.832 179.921 26.9813 180.433 27.28C180.945 27.5573 181.265 28.0053 181.393 28.624C181.115 30.6507 180.561 32.6773 179.729 34.704C178.918 36.7307 177.926 38.6933 176.753 40.592C175.579 42.4693 174.321 44.2187 172.977 45.84C171.654 47.4613 170.353 48.8907 169.073 50.128ZM187.314 50.224C185.884 50.224 184.7 49.968 183.762 49.456C182.823 48.9227 182.13 48.24 181.682 47.408C181.234 46.5547 181.01 45.6373 181.01 44.656C181.01 43.7813 181.18 42.9173 181.522 42.064C181.863 41.2107 182.364 40.432 183.026 39.728C183.708 39.024 184.53 38.4693 185.49 38.064C184.615 37.5093 183.954 36.848 183.506 36.08C183.079 35.2907 182.866 34.4693 182.866 33.616C182.866 32.5067 183.228 31.4293 183.954 30.384C184.679 29.3387 185.735 28.4747 187.122 27.792C188.508 27.1093 190.172 26.768 192.114 26.768C193.458 26.768 194.524 26.9387 195.314 27.28C196.124 27.6 196.711 28.0267 197.074 28.56C197.436 29.072 197.618 29.6267 197.618 30.224C197.618 30.9067 197.404 31.5893 196.978 32.272C196.551 32.9333 195.932 33.4773 195.122 33.904C194.332 34.3307 193.362 34.544 192.21 34.544C192.551 33.5413 192.722 32.7093 192.722 32.048C192.722 31.3867 192.583 30.9067 192.306 30.608C192.028 30.3093 191.687 30.16 191.282 30.16C190.855 30.16 190.396 30.32 189.906 30.64C189.436 30.96 189.042 31.408 188.722 31.984C188.402 32.56 188.242 33.232 188.242 34C188.242 34.4053 188.306 34.864 188.434 35.376C188.562 35.8667 188.764 36.3573 189.042 36.848C189.511 36.5493 189.938 36.336 190.322 36.208C190.727 36.0587 191.09 35.984 191.41 35.984C192.071 35.984 192.551 36.2187 192.85 36.688C193.148 37.136 193.298 37.648 193.298 38.224C193.298 38.9067 193.084 39.5573 192.658 40.176C192.252 40.7947 191.644 41.104 190.834 41.104C190.087 41.104 189.212 40.752 188.21 40.048C187.036 40.88 186.45 41.8613 186.45 42.992C186.45 43.8667 186.716 44.528 187.25 44.976C187.804 45.424 188.508 45.648 189.362 45.648C190.45 45.648 191.666 45.2747 193.01 44.528C194.354 43.76 195.548 42.6187 196.594 41.104L196.85 41.264C196.807 42.7573 196.498 44.0693 195.922 45.2C195.367 46.3093 194.631 47.2373 193.714 47.984C192.818 48.7307 191.815 49.296 190.706 49.68C189.596 50.0427 188.466 50.224 187.314 50.224ZM212.921 50.224C212.153 50.224 211.278 50.0853 210.297 49.808C209.337 49.5307 208.324 49.232 207.257 48.912C206.212 48.5707 205.166 48.3253 204.121 48.176C203.396 48.8587 202.713 49.3493 202.073 49.648C201.454 49.9253 200.9 50.064 200.409 50.064C199.79 50.064 199.268 49.8827 198.841 49.52C198.414 49.1573 198.094 48.6987 197.881 48.144C197.668 47.568 197.561 46.9813 197.561 46.384C197.561 45.7653 197.668 45.1787 197.881 44.624C198.116 44.0693 198.468 43.6213 198.937 43.28C199.406 42.9173 200.004 42.736 200.729 42.736C200.878 42.736 201.038 42.7467 201.209 42.768C201.38 42.7893 201.561 42.8213 201.753 42.864C202.158 41.6267 202.51 40.2613 202.809 38.768C203.129 37.2533 203.374 35.7707 203.545 34.32C203.737 32.8693 203.833 31.6107 203.833 30.544C203.833 30.1173 203.812 29.8187 203.769 29.648C203.726 29.456 203.652 29.264 203.545 29.072L203.513 28.976C203.769 28.2933 204.196 27.76 204.793 27.376C205.39 26.992 206.02 26.8 206.681 26.8C207.406 26.8 208.004 27.0667 208.473 27.6C208.942 28.112 209.177 28.976 209.177 30.192C209.177 30.96 209.081 31.92 208.889 33.072C208.718 34.2027 208.473 35.4293 208.153 36.752C207.833 38.0533 207.481 39.344 207.097 40.624C206.713 41.904 206.329 43.0453 205.945 44.048C206.884 44.2613 207.822 44.5067 208.761 44.784C209.721 45.0613 210.66 45.2 211.577 45.2C212.281 45.2 212.953 45.072 213.593 44.816C214.254 44.56 214.873 44.0907 215.449 43.408C215.876 43.6853 216.185 44.08 216.377 44.592C216.59 45.104 216.697 45.648 216.697 46.224C216.697 46.864 216.558 47.4933 216.281 48.112C216.025 48.7093 215.62 49.2107 215.065 49.616C214.51 50.0213 213.796 50.224 212.921 50.224ZM225.973 50.224C224.543 50.224 223.306 49.968 222.261 49.456C221.237 48.9227 220.383 48.208 219.701 47.312C219.039 46.3947 218.538 45.36 218.197 44.208C217.877 43.056 217.717 41.84 217.717 40.56C217.717 38.9387 217.962 37.3173 218.453 35.696C218.965 34.0747 219.701 32.592 220.661 31.248C221.642 29.904 222.837 28.8267 224.245 28.016C225.653 27.184 227.263 26.768 229.077 26.768C230.506 26.768 231.733 27.0347 232.757 27.568C233.802 28.08 234.655 28.7947 235.317 29.712C235.999 30.608 236.501 31.632 236.821 32.784C237.162 33.936 237.333 35.152 237.333 36.432C237.333 38.032 237.077 39.6533 236.565 41.296C236.074 42.9173 235.338 44.4 234.357 45.744C233.397 47.088 232.213 48.176 230.805 49.008C229.397 49.8187 227.786 50.224 225.973 50.224ZM227.157 46.16C227.903 46.16 228.554 45.904 229.109 45.392C229.663 44.88 230.122 44.208 230.485 43.376C230.869 42.5227 231.157 41.584 231.349 40.56C231.541 39.536 231.637 38.5013 231.637 37.456C231.637 36.304 231.509 35.2267 231.253 34.224C231.018 33.2 230.634 32.3787 230.101 31.76C229.589 31.12 228.917 30.8 228.085 30.8C227.359 30.8 226.709 31.056 226.133 31.568C225.557 32.0587 225.066 32.7307 224.661 33.584C224.255 34.416 223.946 35.344 223.733 36.368C223.541 37.3707 223.445 38.384 223.445 39.408C223.445 40.5813 223.583 41.68 223.861 42.704C224.138 43.728 224.554 44.56 225.109 45.2C225.663 45.84 226.346 46.16 227.157 46.16ZM241.777 50.128C241.051 50.128 240.401 49.8613 239.825 49.328C239.249 48.7733 238.961 47.8453 238.961 46.544C238.961 45.6907 239.078 44.7413 239.313 43.696C239.569 42.6507 239.867 41.5733 240.209 40.464C240.571 39.3333 240.934 38.2453 241.297 37.2C241.659 36.1547 241.958 35.2053 242.193 34.352C242.427 33.4987 242.545 32.8267 242.545 32.336C242.545 31.76 242.321 31.472 241.873 31.472C241.339 31.472 240.838 31.7813 240.369 32.4C239.899 32.9973 239.377 33.84 238.801 34.928L238.609 34.864C238.609 33.1787 239.057 31.7173 239.953 30.48C240.849 29.2213 242.054 28.2507 243.569 27.568C245.105 26.8853 246.811 26.544 248.689 26.544C250.587 26.544 252.123 26.8747 253.297 27.536C254.491 28.176 255.366 29.0187 255.921 30.064C256.497 31.088 256.785 32.1867 256.785 33.36C256.785 34.3627 256.593 35.3653 256.209 36.368C255.846 37.3493 255.313 38.2453 254.609 39.056C253.926 39.8667 253.115 40.5173 252.177 41.008C251.238 41.4987 250.203 41.744 249.073 41.744C247.899 41.744 246.683 41.4453 245.425 40.848C245.147 41.8933 244.902 42.96 244.689 44.048C244.475 45.1147 244.369 46.2133 244.369 47.344C244.369 47.8987 244.401 48.4533 244.465 49.008C244.102 49.3707 243.675 49.648 243.185 49.84C242.715 50.032 242.246 50.128 241.777 50.128ZM246.897 38.544C247.75 38.544 248.497 38.3093 249.137 37.84C249.777 37.3493 250.267 36.7413 250.609 36.016C250.971 35.2693 251.153 34.5227 251.153 33.776C251.153 32.9013 250.865 32.1227 250.289 31.44C249.734 30.7573 248.817 30.416 247.537 30.416C247.366 30.416 247.163 30.4267 246.929 30.448C246.715 30.4693 246.491 30.5013 246.257 30.544C246.427 31.0773 246.534 31.6107 246.577 32.144C246.641 32.656 246.673 33.1573 246.673 33.648C246.673 34.5013 246.609 35.3227 246.481 36.112C246.353 36.9013 246.203 37.68 246.033 38.448C246.331 38.512 246.619 38.544 246.897 38.544ZM264.095 50.224C262.666 50.224 261.482 49.968 260.543 49.456C259.604 48.9227 258.911 48.24 258.463 47.408C258.015 46.5547 257.791 45.6373 257.791 44.656C257.791 43.7813 257.962 42.9173 258.303 42.064C258.644 41.2107 259.146 40.432 259.807 39.728C260.49 39.024 261.311 38.4693 262.271 38.064C261.396 37.5093 260.735 36.848 260.287 36.08C259.86 35.2907 259.647 34.4693 259.647 33.616C259.647 32.5067 260.01 31.4293 260.735 30.384C261.46 29.3387 262.516 28.4747 263.903 27.792C265.29 27.1093 266.954 26.768 268.895 26.768C270.239 26.768 271.306 26.9387 272.095 27.28C272.906 27.6 273.492 28.0267 273.855 28.56C274.218 29.072 274.399 29.6267 274.399 30.224C274.399 30.9067 274.186 31.5893 273.759 32.272C273.332 32.9333 272.714 33.4773 271.903 33.904C271.114 34.3307 270.143 34.544 268.991 34.544C269.332 33.5413 269.503 32.7093 269.503 32.048C269.503 31.3867 269.364 30.9067 269.087 30.608C268.81 30.3093 268.468 30.16 268.063 30.16C267.636 30.16 267.178 30.32 266.687 30.64C266.218 30.96 265.823 31.408 265.503 31.984C265.183 32.56 265.023 33.232 265.023 34C265.023 34.4053 265.087 34.864 265.215 35.376C265.343 35.8667 265.546 36.3573 265.823 36.848C266.292 36.5493 266.719 36.336 267.103 36.208C267.508 36.0587 267.871 35.984 268.191 35.984C268.852 35.984 269.332 36.2187 269.631 36.688C269.93 37.136 270.079 37.648 270.079 38.224C270.079 38.9067 269.866 39.5573 269.439 40.176C269.034 40.7947 268.426 41.104 267.615 41.104C266.868 41.104 265.994 40.752 264.991 40.048C263.818 40.88 263.231 41.8613 263.231 42.992C263.231 43.8667 263.498 44.528 264.031 44.976C264.586 45.424 265.29 45.648 266.143 45.648C267.231 45.648 268.447 45.2747 269.791 44.528C271.135 43.76 272.33 42.6187 273.375 41.104L273.631 41.264C273.588 42.7573 273.279 44.0693 272.703 45.2C272.148 46.3093 271.412 47.2373 270.495 47.984C269.599 48.7307 268.596 49.296 267.487 49.68C266.378 50.0427 265.247 50.224 264.095 50.224ZM290.596 50.224C289.849 50.224 289.199 50.0427 288.644 49.68C288.111 49.296 287.641 48.8053 287.236 48.208C286.852 47.6107 286.511 46.96 286.212 46.256C285.935 45.5307 285.668 44.8373 285.412 44.176C285.028 43.1093 284.676 42.1813 284.356 41.392C284.036 40.5813 283.684 39.8987 283.3 39.344C282.895 40.9653 282.564 42.5227 282.308 44.016C282.073 45.5093 281.924 47.1733 281.86 49.008C281.476 49.3707 281.039 49.648 280.548 49.84C280.079 50.032 279.599 50.128 279.108 50.128C278.361 50.128 277.7 49.872 277.124 49.36C276.548 48.8267 276.26 47.9413 276.26 46.704C276.26 45.8507 276.388 44.8907 276.644 43.824C276.9 42.7573 277.209 41.6587 277.572 40.528C277.956 39.3973 278.34 38.2987 278.724 37.232C279.108 36.1653 279.428 35.2053 279.684 34.352C279.94 33.4773 280.068 32.784 280.068 32.272C280.068 31.7387 279.887 31.472 279.524 31.472C279.119 31.472 278.628 31.7813 278.052 32.4C277.476 32.9973 276.889 33.84 276.292 34.928L276.1 34.864C276.1 33.584 276.377 32.4427 276.932 31.44C277.487 30.4373 278.233 29.5947 279.172 28.912C280.132 28.208 281.231 27.6747 282.468 27.312C283.727 26.9493 285.039 26.768 286.404 26.768C288.217 26.768 289.689 27.056 290.82 27.632C291.951 28.1867 292.783 28.912 293.316 29.808C293.871 30.6827 294.148 31.6213 294.148 32.624C294.148 33.648 293.881 34.6507 293.348 35.632C292.836 36.6133 292.1 37.4347 291.14 38.096C290.201 38.736 289.081 39.1093 287.78 39.216C288.228 39.5573 288.612 39.9947 288.932 40.528C289.252 41.04 289.583 41.6267 289.924 42.288C290.223 42.8853 290.575 43.4613 290.98 44.016C291.385 44.5493 291.94 44.816 292.644 44.816C293.007 44.816 293.305 44.7307 293.54 44.56C293.775 44.368 293.977 44.0587 294.148 43.632L294.34 43.728C294.447 44.048 294.511 44.3573 294.532 44.656C294.575 44.9547 294.596 45.232 294.596 45.488C294.596 46.832 294.223 47.9627 293.476 48.88C292.729 49.776 291.769 50.224 290.596 50.224ZM284.9 36.4C285.668 36.4 286.329 36.2293 286.884 35.888C287.46 35.5253 287.897 35.088 288.196 34.576C288.516 34.0427 288.676 33.5093 288.676 32.976C288.676 32.3147 288.42 31.7387 287.908 31.248C287.417 30.736 286.607 30.48 285.476 30.48C285.305 30.48 285.124 30.4907 284.932 30.512C284.761 30.512 284.591 30.5227 284.42 30.544C284.441 30.6933 284.452 30.8427 284.452 30.992C284.452 31.12 284.452 31.184 284.452 31.184C284.452 32.1653 284.409 33.1147 284.324 34.032C284.26 34.9493 284.164 35.7173 284.036 36.336C284.185 36.3573 284.324 36.3787 284.452 36.4C284.601 36.4 284.751 36.4 284.9 36.4Z" fill="#F74C7C"/>
<path d="M81.73 62.091C81.1493 62.091 80.6683 61.987 80.287 61.779C79.9057 61.5623 79.624 61.285 79.442 60.947C79.26 60.6003 79.169 60.2277 79.169 59.829C79.169 59.4737 79.2383 59.1227 79.377 58.776C79.5157 58.4293 79.7193 58.113 79.988 57.827C80.2653 57.541 80.599 57.3157 80.989 57.151C80.6337 56.9257 80.365 56.657 80.183 56.345C80.0097 56.0243 79.923 55.6907 79.923 55.344C79.923 54.8933 80.0703 54.4557 80.365 54.031C80.6597 53.6063 81.0887 53.2553 81.652 52.978C82.2153 52.7007 82.8913 52.562 83.68 52.562C84.226 52.562 84.6593 52.6313 84.98 52.77C85.3093 52.9 85.5477 53.0733 85.695 53.29C85.8423 53.498 85.916 53.7233 85.916 53.966C85.916 54.2433 85.8293 54.5207 85.656 54.798C85.4827 55.0667 85.2313 55.2877 84.902 55.461C84.5813 55.6343 84.187 55.721 83.719 55.721C83.8577 55.3137 83.927 54.9757 83.927 54.707C83.927 54.4383 83.8707 54.2433 83.758 54.122C83.6453 54.0007 83.5067 53.94 83.342 53.94C83.1687 53.94 82.9823 54.005 82.783 54.135C82.5923 54.265 82.432 54.447 82.302 54.681C82.172 54.915 82.107 55.188 82.107 55.5C82.107 55.6647 82.133 55.851 82.185 56.059C82.237 56.2583 82.3193 56.4577 82.432 56.657C82.6227 56.5357 82.796 56.449 82.952 56.397C83.1167 56.3363 83.264 56.306 83.394 56.306C83.6627 56.306 83.8577 56.4013 83.979 56.592C84.1003 56.774 84.161 56.982 84.161 57.216C84.161 57.4933 84.0743 57.7577 83.901 58.009C83.7363 58.2603 83.4893 58.386 83.16 58.386C82.8567 58.386 82.5013 58.243 82.094 57.957C81.6173 58.295 81.379 58.6937 81.379 59.153C81.379 59.5083 81.4873 59.777 81.704 59.959C81.9293 60.141 82.2153 60.232 82.562 60.232C83.004 60.232 83.498 60.0803 84.044 59.777C84.59 59.465 85.0753 59.0013 85.5 58.386L85.604 58.451C85.5867 59.0577 85.461 59.5907 85.227 60.05C85.0017 60.5007 84.7027 60.8777 84.33 61.181C83.966 61.4843 83.5587 61.714 83.108 61.87C82.6573 62.0173 82.198 62.091 81.73 62.091ZM91.0283 62.065C90.7249 62.065 90.4606 61.9653 90.2353 61.766C90.0099 61.5667 89.8973 61.2417 89.8973 60.791C89.8973 60.7477 89.8973 60.7043 89.8973 60.661C89.8973 60.6177 89.9016 60.5743 89.9103 60.531C89.6503 61.051 89.3556 61.4367 89.0263 61.688C88.7056 61.9307 88.3806 62.052 88.0513 62.052C87.7479 62.052 87.4619 61.948 87.1933 61.74C86.9246 61.5233 86.7079 61.207 86.5433 60.791C86.3786 60.375 86.2963 59.8723 86.2963 59.283C86.2963 58.6763 86.3786 58.1347 86.5433 57.658C86.7166 57.1813 86.9419 56.7783 87.2193 56.449C87.4966 56.1197 87.7999 55.8727 88.1293 55.708C88.4586 55.5347 88.7793 55.448 89.0913 55.448C89.4379 55.448 89.7499 55.5563 90.0273 55.773C90.3046 55.981 90.4953 56.3147 90.5993 56.774C90.6253 56.6267 90.6426 56.4923 90.6513 56.371C90.6686 56.2497 90.6773 56.1673 90.6773 56.124C90.6859 55.89 90.8029 55.7167 91.0283 55.604C91.2623 55.4913 91.5179 55.435 91.7953 55.435C92.0379 55.435 92.2676 55.4827 92.4843 55.578C92.7009 55.6733 92.8483 55.8337 92.9263 56.059L92.9523 56.137C92.8483 56.371 92.7443 56.6527 92.6403 56.982C92.5363 57.3113 92.4409 57.658 92.3543 58.022C92.2676 58.3773 92.1983 58.7283 92.1463 59.075C92.0943 59.413 92.0683 59.712 92.0683 59.972C92.0683 60.258 92.0986 60.4573 92.1593 60.57C92.2199 60.674 92.2936 60.726 92.3803 60.726C92.5276 60.726 92.6619 60.622 92.7833 60.414L92.8873 60.466C92.8873 60.7607 92.7919 61.0293 92.6013 61.272C92.4106 61.5147 92.1723 61.7097 91.8863 61.857C91.6003 61.9957 91.3143 62.065 91.0283 62.065ZM88.9093 60.414C89.1346 60.414 89.3816 60.2147 89.6503 59.816C89.9276 59.4087 90.1659 58.828 90.3653 58.074C90.3826 57.996 90.3999 57.9223 90.4173 57.853C90.4346 57.775 90.4476 57.7013 90.4563 57.632C90.3176 57.3113 90.1703 57.086 90.0143 56.956C89.8669 56.8173 89.7196 56.748 89.5723 56.748C89.3556 56.748 89.1519 56.865 88.9613 57.099C88.7793 57.3243 88.6276 57.6103 88.5063 57.957C88.3936 58.3037 88.3373 58.6503 88.3373 58.997C88.3373 59.4737 88.3893 59.829 88.4933 60.063C88.6059 60.297 88.7446 60.414 88.9093 60.414ZM95.5563 62.052C95.279 62.052 95.0146 61.9913 94.7633 61.87C94.5206 61.74 94.3213 61.5407 94.1653 61.272C94.018 61.0033 93.9443 60.661 93.9443 60.245C93.9443 60.0197 93.966 59.725 94.0093 59.361C94.0526 58.997 94.109 58.5983 94.1783 58.165C94.2563 57.7317 94.3343 57.2983 94.4123 56.865C94.239 56.8737 94.07 56.891 93.9053 56.917C93.7493 56.943 93.5933 56.9733 93.4373 57.008L93.4113 56.917C93.5846 56.709 93.7666 56.5313 93.9573 56.384C94.148 56.2367 94.3473 56.1153 94.5553 56.02C94.668 55.448 94.7633 54.954 94.8413 54.538C94.9193 54.1133 94.9583 53.862 94.9583 53.784C94.9583 53.6367 95.071 53.5153 95.2963 53.42C95.5303 53.3247 95.7903 53.277 96.0763 53.277C96.3276 53.277 96.5616 53.3247 96.7783 53.42C97.0036 53.5153 97.1553 53.6757 97.2333 53.901C97.1813 53.953 97.1076 54.148 97.0123 54.486C96.917 54.8153 96.8173 55.2183 96.7133 55.695C96.878 55.7037 97.047 55.7123 97.2203 55.721C97.3936 55.7297 97.5713 55.7427 97.7533 55.76C97.7706 55.812 97.7836 55.8683 97.7923 55.929C97.801 55.9897 97.8053 56.0547 97.8053 56.124C97.8053 56.254 97.7836 56.397 97.7403 56.553C97.7056 56.7003 97.6623 56.8347 97.6103 56.956C97.4023 56.9387 97.2073 56.9213 97.0253 56.904C96.8433 56.878 96.6656 56.8607 96.4923 56.852C96.423 57.2247 96.358 57.5973 96.2973 57.97C96.2453 58.3427 96.202 58.6807 96.1673 58.984C96.1413 59.2873 96.1283 59.5257 96.1283 59.699C96.1283 60.063 96.1933 60.3057 96.3233 60.427C96.462 60.5483 96.6266 60.609 96.8173 60.609C96.9906 60.609 97.1466 60.5743 97.2853 60.505C97.424 60.4357 97.5236 60.3533 97.5843 60.258L97.7143 60.297C97.6623 60.6523 97.5236 60.9643 97.2983 61.233C97.073 61.493 96.8043 61.6967 96.4923 61.844C96.1803 61.9827 95.8683 62.052 95.5563 62.052ZM102.878 62.078C102.298 62.078 101.817 61.9783 101.435 61.779C101.063 61.5797 100.785 61.324 100.603 61.012C100.421 60.7 100.33 60.3793 100.33 60.05C100.33 59.7293 100.408 59.426 100.564 59.14C100.72 58.8453 100.941 58.6027 101.227 58.412C101.522 58.2213 101.869 58.126 102.267 58.126C102.259 58.204 102.254 58.2777 102.254 58.347C102.254 58.4077 102.254 58.438 102.254 58.438C102.254 59.0187 102.311 59.478 102.423 59.816C102.536 60.1453 102.679 60.3837 102.852 60.531C103.026 60.6697 103.203 60.739 103.385 60.739C103.663 60.739 103.91 60.6307 104.126 60.414C104.343 60.1887 104.451 59.9287 104.451 59.634C104.451 59.3047 104.308 59.0143 104.022 58.763C103.745 58.5117 103.39 58.2343 102.956 57.931C102.714 57.749 102.454 57.5453 102.176 57.32C101.908 57.086 101.678 56.813 101.487 56.501C101.297 56.1803 101.201 55.8033 101.201 55.37C101.201 54.9193 101.305 54.5207 101.513 54.174C101.73 53.8273 102.012 53.537 102.358 53.303C102.714 53.0603 103.099 52.8783 103.515 52.757C103.94 52.627 104.36 52.562 104.776 52.562C105.288 52.562 105.708 52.6443 106.037 52.809C106.367 52.9737 106.614 53.186 106.778 53.446C106.943 53.706 107.025 53.9747 107.025 54.252C107.025 54.512 106.952 54.7633 106.804 55.006C106.666 55.24 106.458 55.4307 106.18 55.578C105.903 55.7253 105.561 55.799 105.153 55.799C105.179 55.6777 105.197 55.5693 105.205 55.474C105.214 55.37 105.218 55.279 105.218 55.201C105.218 54.7677 105.123 54.46 104.932 54.278C104.75 54.0873 104.547 53.992 104.321 53.992C104.105 53.992 103.897 54.0743 103.697 54.239C103.498 54.395 103.398 54.6507 103.398 55.006C103.398 55.3093 103.476 55.5693 103.632 55.786C103.797 56.0027 104.005 56.1933 104.256 56.358C104.516 56.5227 104.789 56.683 105.075 56.839C105.37 56.995 105.652 57.1683 105.92 57.359C106.198 57.541 106.427 57.7577 106.609 58.009C106.791 58.2603 106.882 58.5767 106.882 58.958C106.882 59.3567 106.774 59.7467 106.557 60.128C106.341 60.5007 106.046 60.8343 105.673 61.129C105.301 61.415 104.872 61.6447 104.386 61.818C103.91 61.9913 103.407 62.078 102.878 62.078ZM109.144 62.052C108.91 62.052 108.681 61.9957 108.455 61.883C108.239 61.7617 108.061 61.571 107.922 61.311C107.784 61.051 107.714 60.7173 107.714 60.31C107.714 59.946 107.762 59.5213 107.857 59.036C107.961 58.542 108.074 58.0307 108.195 57.502C108.325 56.9733 108.438 56.4577 108.533 55.955C108.629 55.4523 108.672 55.006 108.663 54.616C108.663 54.2433 108.62 53.979 108.533 53.823L108.52 53.784C108.616 53.5067 108.785 53.29 109.027 53.134C109.27 52.978 109.526 52.9 109.794 52.9C110.098 52.9 110.366 53.017 110.6 53.251C110.843 53.4763 110.964 53.8577 110.964 54.395C110.964 54.681 110.93 55.0233 110.86 55.422C110.791 55.812 110.709 56.2323 110.613 56.683C110.518 57.125 110.418 57.5627 110.314 57.996C110.219 58.4293 110.137 58.828 110.067 59.192C109.998 59.556 109.963 59.855 109.963 60.089C109.963 60.3317 109.998 60.5007 110.067 60.596C110.137 60.6827 110.215 60.726 110.301 60.726C110.397 60.726 110.488 60.6913 110.574 60.622C110.661 60.544 110.717 60.4747 110.743 60.414L110.847 60.44C110.839 60.752 110.748 61.0293 110.574 61.272C110.41 61.5147 110.197 61.7053 109.937 61.844C109.686 61.9827 109.422 62.052 109.144 62.052ZM114.317 62.091C113.684 62.091 113.16 61.9653 112.744 61.714C112.328 61.454 112.016 61.116 111.808 60.7C111.6 60.2753 111.496 59.8203 111.496 59.335C111.496 58.8757 111.583 58.4163 111.756 57.957C111.938 57.489 112.198 57.0643 112.536 56.683C112.883 56.3017 113.299 55.994 113.784 55.76C114.278 55.526 114.833 55.409 115.448 55.409C116.211 55.409 116.765 55.5823 117.112 55.929C117.467 56.267 117.645 56.6787 117.645 57.164C117.645 57.58 117.532 57.9657 117.307 58.321C117.09 58.6677 116.8 58.9493 116.436 59.166C116.072 59.374 115.673 59.478 115.24 59.478C115.015 59.478 114.785 59.4433 114.551 59.374C114.317 59.3047 114.087 59.1963 113.862 59.049C113.905 59.5863 114.061 59.9763 114.33 60.219C114.599 60.4617 114.919 60.583 115.292 60.583C115.552 60.583 115.812 60.5353 116.072 60.44C116.332 60.336 116.57 60.206 116.787 60.05C117.012 59.8853 117.186 59.712 117.307 59.53L117.398 59.595C117.398 60.0457 117.303 60.4313 117.112 60.752C116.93 61.064 116.687 61.3197 116.384 61.519C116.081 61.7183 115.747 61.8657 115.383 61.961C115.028 62.0477 114.672 62.091 114.317 62.091ZM114.616 58.581C114.893 58.581 115.119 58.503 115.292 58.347C115.465 58.1823 115.595 57.9917 115.682 57.775C115.769 57.5583 115.812 57.3677 115.812 57.203C115.812 57.0037 115.756 56.839 115.643 56.709C115.53 56.5703 115.374 56.501 115.175 56.501C115.019 56.501 114.846 56.5573 114.655 56.67C114.473 56.7827 114.308 56.9777 114.161 57.255C114.014 57.5237 113.918 57.9007 113.875 58.386C114.152 58.516 114.399 58.581 114.616 58.581ZM121.096 62.091C120.463 62.091 119.939 61.9653 119.523 61.714C119.107 61.454 118.795 61.116 118.587 60.7C118.379 60.2753 118.275 59.8203 118.275 59.335C118.275 58.8757 118.362 58.4163 118.535 57.957C118.717 57.489 118.977 57.0643 119.315 56.683C119.662 56.3017 120.078 55.994 120.563 55.76C121.057 55.526 121.612 55.409 122.227 55.409C122.99 55.409 123.544 55.5823 123.891 55.929C124.246 56.267 124.424 56.6787 124.424 57.164C124.424 57.58 124.311 57.9657 124.086 58.321C123.869 58.6677 123.579 58.9493 123.215 59.166C122.851 59.374 122.452 59.478 122.019 59.478C121.794 59.478 121.564 59.4433 121.33 59.374C121.096 59.3047 120.866 59.1963 120.641 59.049C120.684 59.5863 120.84 59.9763 121.109 60.219C121.378 60.4617 121.698 60.583 122.071 60.583C122.331 60.583 122.591 60.5353 122.851 60.44C123.111 60.336 123.349 60.206 123.566 60.05C123.791 59.8853 123.965 59.712 124.086 59.53L124.177 59.595C124.177 60.0457 124.082 60.4313 123.891 60.752C123.709 61.064 123.466 61.3197 123.163 61.519C122.86 61.7183 122.526 61.8657 122.162 61.961C121.807 62.0477 121.451 62.091 121.096 62.091ZM121.395 58.581C121.672 58.581 121.898 58.503 122.071 58.347C122.244 58.1823 122.374 57.9917 122.461 57.775C122.548 57.5583 122.591 57.3677 122.591 57.203C122.591 57.0037 122.535 56.839 122.422 56.709C122.309 56.5703 122.153 56.501 121.954 56.501C121.798 56.501 121.625 56.5573 121.434 56.67C121.252 56.7827 121.087 56.9777 120.94 57.255C120.793 57.5237 120.697 57.9007 120.654 58.386C120.931 58.516 121.178 58.581 121.395 58.581ZM126.378 64.6C126.161 64.6 125.953 64.5437 125.754 64.431C125.563 64.3183 125.403 64.1363 125.273 63.885C125.152 63.6337 125.091 63.2957 125.091 62.871C125.091 62.4637 125.143 62.0217 125.247 61.545C125.36 61.0683 125.485 60.5917 125.624 60.115C125.763 59.6297 125.884 59.1703 125.988 58.737C126.101 58.3037 126.157 57.918 126.157 57.58C126.157 57.3287 126.122 57.1597 126.053 57.073C125.984 56.9777 125.901 56.93 125.806 56.93C125.719 56.93 125.633 56.956 125.546 57.008C125.459 57.06 125.386 57.1207 125.325 57.19L125.234 57.138C125.234 56.8347 125.321 56.5573 125.494 56.306C125.676 56.046 125.906 55.838 126.183 55.682C126.46 55.526 126.746 55.448 127.041 55.448C127.327 55.448 127.557 55.5217 127.73 55.669C127.903 55.8077 128.033 55.9897 128.12 56.215C128.215 56.4403 128.272 56.683 128.289 56.943C128.618 56.423 128.978 56.0373 129.368 55.786C129.758 55.5347 130.126 55.409 130.473 55.409C130.941 55.409 131.335 55.63 131.656 56.072C131.985 56.514 132.15 57.1987 132.15 58.126C132.15 58.9927 132.011 59.7207 131.734 60.31C131.457 60.8907 131.106 61.3283 130.681 61.623C130.265 61.909 129.84 62.052 129.407 62.052C129.034 62.052 128.688 61.9437 128.367 61.727C128.055 61.5017 127.812 61.1767 127.639 60.752C127.561 61.1073 127.492 61.4583 127.431 61.805C127.379 62.1517 127.353 62.4897 127.353 62.819C127.353 63.001 127.362 63.1787 127.379 63.352C127.405 63.5253 127.444 63.6987 127.496 63.872V63.95C127.383 64.1667 127.223 64.327 127.015 64.431C126.816 64.5437 126.603 64.6 126.378 64.6ZM128.77 60.791C128.978 60.791 129.16 60.7087 129.316 60.544C129.472 60.3793 129.606 60.167 129.719 59.907C129.832 59.6383 129.914 59.3523 129.966 59.049C130.027 58.7457 130.057 58.451 130.057 58.165C130.057 57.801 130.009 57.4933 129.914 57.242C129.819 56.982 129.671 56.852 129.472 56.852C129.221 56.852 128.939 57.1077 128.627 57.619C128.315 58.1217 128.072 58.8887 127.899 59.92C127.977 60.1887 128.094 60.401 128.25 60.557C128.406 60.713 128.579 60.791 128.77 60.791ZM138.41 62.078C137.864 62.078 137.391 61.9697 136.993 61.753C136.603 61.5277 136.278 61.2243 136.018 60.843C135.766 60.453 135.58 60.0153 135.459 59.53C135.346 59.036 135.298 58.5247 135.316 57.996C135.35 57.0513 135.524 56.2367 135.836 55.552C136.148 54.8673 136.542 54.304 137.019 53.862C137.495 53.42 138.007 53.095 138.553 52.887C139.107 52.6703 139.64 52.562 140.152 52.562C140.585 52.562 140.975 52.6357 141.322 52.783C141.677 52.9217 141.959 53.1297 142.167 53.407C142.375 53.6757 142.479 54.005 142.479 54.395C142.479 54.6983 142.388 54.993 142.206 55.279C142.032 55.5563 141.764 55.786 141.4 55.968C141.044 56.1413 140.585 56.228 140.022 56.228C140.117 55.9507 140.186 55.708 140.23 55.5C140.273 55.292 140.295 55.1143 140.295 54.967C140.295 54.6637 140.225 54.46 140.087 54.356C139.948 54.2433 139.775 54.187 139.567 54.187C139.315 54.187 139.077 54.278 138.852 54.46C138.626 54.642 138.423 54.889 138.241 55.201C138.067 55.5043 137.929 55.8423 137.825 56.215C137.721 56.5877 137.66 56.9647 137.643 57.346C137.608 58.308 137.747 59.036 138.059 59.53C138.371 60.024 138.774 60.271 139.268 60.271C139.649 60.271 140.069 60.115 140.529 59.803C140.997 59.491 141.456 59.0187 141.907 58.386L142.076 58.464C141.963 59.244 141.716 59.9027 141.335 60.44C140.953 60.9773 140.503 61.3847 139.983 61.662C139.471 61.9393 138.947 62.078 138.41 62.078ZM145.574 62.091C144.924 62.091 144.386 61.961 143.962 61.701C143.537 61.441 143.221 61.0987 143.013 60.674C142.813 60.2407 142.714 59.7813 142.714 59.296C142.714 58.8367 142.796 58.3773 142.961 57.918C143.134 57.4587 143.381 57.0427 143.702 56.67C144.031 56.2887 144.43 55.9853 144.898 55.76C145.366 55.526 145.903 55.409 146.51 55.409C147.16 55.409 147.693 55.5433 148.109 55.812C148.533 56.072 148.845 56.4187 149.045 56.852C149.253 57.2853 149.357 57.749 149.357 58.243C149.357 58.6937 149.274 59.1487 149.11 59.608C148.945 60.0587 148.698 60.4747 148.369 60.856C148.048 61.2287 147.654 61.5277 147.186 61.753C146.718 61.9783 146.18 62.091 145.574 62.091ZM145.925 60.986C146.159 60.986 146.354 60.8647 146.51 60.622C146.666 60.3793 146.783 60.0717 146.861 59.699C146.939 59.3177 146.978 58.932 146.978 58.542C146.978 58.1953 146.943 57.8703 146.874 57.567C146.813 57.255 146.718 57.0037 146.588 56.813C146.458 56.6137 146.289 56.514 146.081 56.514C145.855 56.514 145.66 56.6353 145.496 56.878C145.34 57.1207 145.223 57.4283 145.145 57.801C145.067 58.1737 145.028 58.5593 145.028 58.958C145.028 59.3047 145.058 59.634 145.119 59.946C145.188 60.2493 145.288 60.5007 145.418 60.7C145.548 60.8907 145.717 60.986 145.925 60.986ZM151.937 62.052C151.625 62.052 151.33 61.9437 151.053 61.727C150.784 61.5103 150.563 61.194 150.39 60.778C150.225 60.362 150.143 59.8593 150.143 59.27C150.143 58.6633 150.229 58.1217 150.403 57.645C150.576 57.1683 150.801 56.7653 151.079 56.436C151.365 56.098 151.672 55.8423 152.002 55.669C152.34 55.4957 152.669 55.409 152.99 55.409C153.345 55.409 153.661 55.5217 153.939 55.747C154.216 55.9637 154.407 56.306 154.511 56.774C154.589 56.3407 154.654 55.929 154.706 55.539C154.766 55.1403 154.797 54.7893 154.797 54.486C154.797 54.0873 154.745 53.797 154.641 53.615V53.537C154.84 53.3117 155.057 53.147 155.291 53.043C155.533 52.9303 155.763 52.874 155.98 52.874C156.266 52.874 156.508 52.965 156.708 53.147C156.907 53.3203 157.007 53.5717 157.007 53.901C157.007 54.083 156.976 54.3517 156.916 54.707C156.855 55.0623 156.781 55.4697 156.695 55.929C156.608 56.3797 156.517 56.8477 156.422 57.333C156.335 57.8097 156.261 58.269 156.201 58.711C156.14 59.1443 156.11 59.5213 156.11 59.842C156.11 60.1107 156.136 60.3273 156.188 60.492C156.248 60.648 156.344 60.726 156.474 60.726C156.569 60.726 156.664 60.6957 156.76 60.635C156.864 60.5657 156.933 60.4877 156.968 60.401L157.059 60.466C157.059 60.752 156.968 61.0163 156.786 61.259C156.604 61.493 156.374 61.6837 156.097 61.831C155.819 61.9783 155.533 62.052 155.239 62.052C154.918 62.052 154.662 61.9653 154.472 61.792C154.29 61.61 154.16 61.3803 154.082 61.103C154.004 60.8257 153.96 60.5397 153.952 60.245C153.683 60.869 153.367 61.3283 153.003 61.623C152.647 61.909 152.292 62.052 151.937 62.052ZM152.808 60.401C153.033 60.401 153.284 60.1973 153.562 59.79C153.839 59.3827 154.082 58.789 154.29 58.009L154.368 57.606C154.229 57.2853 154.077 57.06 153.913 56.93C153.757 56.7913 153.605 56.722 153.458 56.722C153.241 56.722 153.037 56.8433 152.847 57.086C152.656 57.32 152.5 57.6233 152.379 57.996C152.266 58.36 152.21 58.7457 152.21 59.153C152.21 59.543 152.266 59.8507 152.379 60.076C152.491 60.2927 152.634 60.401 152.808 60.401ZM160.388 62.091C159.755 62.091 159.231 61.9653 158.815 61.714C158.399 61.454 158.087 61.116 157.879 60.7C157.671 60.2753 157.567 59.8203 157.567 59.335C157.567 58.8757 157.654 58.4163 157.827 57.957C158.009 57.489 158.269 57.0643 158.607 56.683C158.954 56.3017 159.37 55.994 159.855 55.76C160.349 55.526 160.904 55.409 161.519 55.409C162.282 55.409 162.836 55.5823 163.183 55.929C163.538 56.267 163.716 56.6787 163.716 57.164C163.716 57.58 163.603 57.9657 163.378 58.321C163.161 58.6677 162.871 58.9493 162.507 59.166C162.143 59.374 161.744 59.478 161.311 59.478C161.086 59.478 160.856 59.4433 160.622 59.374C160.388 59.3047 160.158 59.1963 159.933 59.049C159.976 59.5863 160.132 59.9763 160.401 60.219C160.67 60.4617 160.99 60.583 161.363 60.583C161.623 60.583 161.883 60.5353 162.143 60.44C162.403 60.336 162.641 60.206 162.858 60.05C163.083 59.8853 163.257 59.712 163.378 59.53L163.469 59.595C163.469 60.0457 163.374 60.4313 163.183 60.752C163.001 61.064 162.758 61.3197 162.455 61.519C162.152 61.7183 161.818 61.8657 161.454 61.961C161.099 62.0477 160.743 62.091 160.388 62.091ZM160.687 58.581C160.964 58.581 161.19 58.503 161.363 58.347C161.536 58.1823 161.666 57.9917 161.753 57.775C161.84 57.5583 161.883 57.3677 161.883 57.203C161.883 57.0037 161.827 56.839 161.714 56.709C161.601 56.5703 161.445 56.501 161.246 56.501C161.09 56.501 160.917 56.5573 160.726 56.67C160.544 56.7827 160.379 56.9777 160.232 57.255C160.085 57.5237 159.989 57.9007 159.946 58.386C160.223 58.516 160.47 58.581 160.687 58.581ZM172.857 62.091C172.554 62.091 172.29 62.0173 172.064 61.87C171.848 61.714 171.657 61.5147 171.492 61.272C171.336 61.0293 171.198 60.765 171.076 60.479C170.964 60.1843 170.855 59.9027 170.751 59.634C170.595 59.2007 170.452 58.8237 170.322 58.503C170.192 58.1737 170.049 57.8963 169.893 57.671C169.729 58.3297 169.594 58.9623 169.49 59.569C169.395 60.1757 169.334 60.8517 169.308 61.597C169.152 61.7443 168.975 61.857 168.775 61.935C168.585 62.013 168.39 62.052 168.19 62.052C167.887 62.052 167.618 61.948 167.384 61.74C167.15 61.5233 167.033 61.1637 167.033 60.661C167.033 60.3143 167.085 59.9243 167.189 59.491C167.293 59.0577 167.419 58.6113 167.566 58.152C167.722 57.6927 167.878 57.2463 168.034 56.813C168.19 56.3797 168.32 55.9897 168.424 55.643C168.528 55.2877 168.58 55.006 168.58 54.798C168.58 54.5813 168.507 54.473 168.359 54.473C168.195 54.473 167.995 54.5987 167.761 54.85C167.527 55.0927 167.289 55.435 167.046 55.877L166.968 55.851C166.968 55.331 167.081 54.8673 167.306 54.46C167.532 54.0527 167.835 53.7103 168.216 53.433C168.606 53.147 169.053 52.9303 169.555 52.783C170.067 52.6357 170.6 52.562 171.154 52.562C171.891 52.562 172.489 52.679 172.948 52.913C173.408 53.1383 173.746 53.433 173.962 53.797C174.188 54.1523 174.3 54.5337 174.3 54.941C174.3 55.357 174.192 55.7643 173.975 56.163C173.767 56.5617 173.468 56.8953 173.078 57.164C172.697 57.424 172.242 57.5757 171.713 57.619C171.895 57.7577 172.051 57.9353 172.181 58.152C172.311 58.36 172.446 58.5983 172.584 58.867C172.706 59.1097 172.849 59.3437 173.013 59.569C173.178 59.7857 173.403 59.894 173.689 59.894C173.837 59.894 173.958 59.8593 174.053 59.79C174.149 59.712 174.231 59.5863 174.3 59.413L174.378 59.452C174.422 59.582 174.448 59.7077 174.456 59.829C174.474 59.9503 174.482 60.063 174.482 60.167C174.482 60.713 174.331 61.1723 174.027 61.545C173.724 61.909 173.334 62.091 172.857 62.091ZM170.543 56.475C170.855 56.475 171.124 56.4057 171.349 56.267C171.583 56.1197 171.761 55.942 171.882 55.734C172.012 55.5173 172.077 55.3007 172.077 55.084C172.077 54.8153 171.973 54.5813 171.765 54.382C171.566 54.174 171.237 54.07 170.777 54.07C170.708 54.07 170.634 54.0743 170.556 54.083C170.487 54.083 170.418 54.0873 170.348 54.096C170.357 54.1567 170.361 54.2173 170.361 54.278C170.361 54.33 170.361 54.356 170.361 54.356C170.361 54.7547 170.344 55.1403 170.309 55.513C170.283 55.8857 170.244 56.1977 170.192 56.449C170.253 56.4577 170.309 56.4663 170.361 56.475C170.422 56.475 170.483 56.475 170.543 56.475ZM177.933 62.091C177.3 62.091 176.776 61.9653 176.36 61.714C175.944 61.454 175.632 61.116 175.424 60.7C175.216 60.2753 175.112 59.8203 175.112 59.335C175.112 58.8757 175.199 58.4163 175.372 57.957C175.554 57.489 175.814 57.0643 176.152 56.683C176.499 56.3017 176.915 55.994 177.4 55.76C177.894 55.526 178.449 55.409 179.064 55.409C179.827 55.409 180.381 55.5823 180.728 55.929C181.083 56.267 181.261 56.6787 181.261 57.164C181.261 57.58 181.148 57.9657 180.923 58.321C180.706 58.6677 180.416 58.9493 180.052 59.166C179.688 59.374 179.289 59.478 178.856 59.478C178.631 59.478 178.401 59.4433 178.167 59.374C177.933 59.3047 177.703 59.1963 177.478 59.049C177.521 59.5863 177.677 59.9763 177.946 60.219C178.215 60.4617 178.535 60.583 178.908 60.583C179.168 60.583 179.428 60.5353 179.688 60.44C179.948 60.336 180.186 60.206 180.403 60.05C180.628 59.8853 180.802 59.712 180.923 59.53L181.014 59.595C181.014 60.0457 180.919 60.4313 180.728 60.752C180.546 61.064 180.303 61.3197 180 61.519C179.697 61.7183 179.363 61.8657 178.999 61.961C178.644 62.0477 178.288 62.091 177.933 62.091ZM178.232 58.581C178.509 58.581 178.735 58.503 178.908 58.347C179.081 58.1823 179.211 57.9917 179.298 57.775C179.385 57.5583 179.428 57.3677 179.428 57.203C179.428 57.0037 179.372 56.839 179.259 56.709C179.146 56.5703 178.99 56.501 178.791 56.501C178.635 56.501 178.462 56.5573 178.271 56.67C178.089 56.7827 177.924 56.9777 177.777 57.255C177.63 57.5237 177.534 57.9007 177.491 58.386C177.768 58.516 178.015 58.581 178.232 58.581ZM183.215 64.6C182.998 64.6 182.79 64.5437 182.591 64.431C182.4 64.3183 182.24 64.1363 182.11 63.885C181.989 63.6337 181.928 63.2957 181.928 62.871C181.928 62.4637 181.98 62.0217 182.084 61.545C182.197 61.0683 182.322 60.5917 182.461 60.115C182.6 59.6297 182.721 59.1703 182.825 58.737C182.938 58.3037 182.994 57.918 182.994 57.58C182.994 57.3287 182.959 57.1597 182.89 57.073C182.821 56.9777 182.738 56.93 182.643 56.93C182.556 56.93 182.47 56.956 182.383 57.008C182.296 57.06 182.223 57.1207 182.162 57.19L182.071 57.138C182.071 56.8347 182.158 56.5573 182.331 56.306C182.513 56.046 182.743 55.838 183.02 55.682C183.297 55.526 183.583 55.448 183.878 55.448C184.164 55.448 184.394 55.5217 184.567 55.669C184.74 55.8077 184.87 55.9897 184.957 56.215C185.052 56.4403 185.109 56.683 185.126 56.943C185.455 56.423 185.815 56.0373 186.205 55.786C186.595 55.5347 186.963 55.409 187.31 55.409C187.778 55.409 188.172 55.63 188.493 56.072C188.822 56.514 188.987 57.1987 188.987 58.126C188.987 58.9927 188.848 59.7207 188.571 60.31C188.294 60.8907 187.943 61.3283 187.518 61.623C187.102 61.909 186.677 62.052 186.244 62.052C185.871 62.052 185.525 61.9437 185.204 61.727C184.892 61.5017 184.649 61.1767 184.476 60.752C184.398 61.1073 184.329 61.4583 184.268 61.805C184.216 62.1517 184.19 62.4897 184.19 62.819C184.19 63.001 184.199 63.1787 184.216 63.352C184.242 63.5253 184.281 63.6987 184.333 63.872V63.95C184.22 64.1667 184.06 64.327 183.852 64.431C183.653 64.5437 183.44 64.6 183.215 64.6ZM185.607 60.791C185.815 60.791 185.997 60.7087 186.153 60.544C186.309 60.3793 186.443 60.167 186.556 59.907C186.669 59.6383 186.751 59.3523 186.803 59.049C186.864 58.7457 186.894 58.451 186.894 58.165C186.894 57.801 186.846 57.4933 186.751 57.242C186.656 56.982 186.508 56.852 186.309 56.852C186.058 56.852 185.776 57.1077 185.464 57.619C185.152 58.1217 184.909 58.8887 184.736 59.92C184.814 60.1887 184.931 60.401 185.087 60.557C185.243 60.713 185.416 60.791 185.607 60.791ZM192.533 62.091C191.9 62.091 191.376 61.9653 190.96 61.714C190.544 61.454 190.232 61.116 190.024 60.7C189.816 60.2753 189.712 59.8203 189.712 59.335C189.712 58.8757 189.798 58.4163 189.972 57.957C190.154 57.489 190.414 57.0643 190.752 56.683C191.098 56.3017 191.514 55.994 192 55.76C192.494 55.526 193.048 55.409 193.664 55.409C194.426 55.409 194.981 55.5823 195.328 55.929C195.683 56.267 195.861 56.6787 195.861 57.164C195.861 57.58 195.748 57.9657 195.523 58.321C195.306 58.6677 195.016 58.9493 194.652 59.166C194.288 59.374 193.889 59.478 193.456 59.478C193.23 59.478 193.001 59.4433 192.767 59.374C192.533 59.3047 192.303 59.1963 192.078 59.049C192.121 59.5863 192.277 59.9763 192.546 60.219C192.814 60.4617 193.135 60.583 193.508 60.583C193.768 60.583 194.028 60.5353 194.288 60.44C194.548 60.336 194.786 60.206 195.003 60.05C195.228 59.8853 195.401 59.712 195.523 59.53L195.614 59.595C195.614 60.0457 195.518 60.4313 195.328 60.752C195.146 61.064 194.903 61.3197 194.6 61.519C194.296 61.7183 193.963 61.8657 193.599 61.961C193.243 62.0477 192.888 62.091 192.533 62.091ZM192.832 58.581C193.109 58.581 193.334 58.503 193.508 58.347C193.681 58.1823 193.811 57.9917 193.898 57.775C193.984 57.5583 194.028 57.3677 194.028 57.203C194.028 57.0037 193.971 56.839 193.859 56.709C193.746 56.5703 193.59 56.501 193.391 56.501C193.235 56.501 193.061 56.5573 192.871 56.67C192.689 56.7827 192.524 56.9777 192.377 57.255C192.229 57.5237 192.134 57.9007 192.091 58.386C192.368 58.516 192.615 58.581 192.832 58.581ZM201.274 62.065C200.971 62.065 200.707 61.9653 200.481 61.766C200.256 61.5667 200.143 61.2417 200.143 60.791C200.143 60.7477 200.143 60.7043 200.143 60.661C200.143 60.6177 200.148 60.5743 200.156 60.531C199.896 61.051 199.602 61.4367 199.272 61.688C198.952 61.9307 198.627 62.052 198.297 62.052C197.994 62.052 197.708 61.948 197.439 61.74C197.171 61.5233 196.954 61.207 196.789 60.791C196.625 60.375 196.542 59.8723 196.542 59.283C196.542 58.6763 196.625 58.1347 196.789 57.658C196.963 57.1813 197.188 56.7783 197.465 56.449C197.743 56.1197 198.046 55.8727 198.375 55.708C198.705 55.5347 199.025 55.448 199.337 55.448C199.684 55.448 199.996 55.5563 200.273 55.773C200.551 55.981 200.741 56.3147 200.845 56.774C200.871 56.6267 200.889 56.4923 200.897 56.371C200.915 56.2497 200.923 56.1673 200.923 56.124C200.932 55.89 201.049 55.7167 201.274 55.604C201.508 55.4913 201.764 55.435 202.041 55.435C202.284 55.435 202.514 55.4827 202.73 55.578C202.947 55.6733 203.094 55.8337 203.172 56.059L203.198 56.137C203.094 56.371 202.99 56.6527 202.886 56.982C202.782 57.3113 202.687 57.658 202.6 58.022C202.514 58.3773 202.444 58.7283 202.392 59.075C202.34 59.413 202.314 59.712 202.314 59.972C202.314 60.258 202.345 60.4573 202.405 60.57C202.466 60.674 202.54 60.726 202.626 60.726C202.774 60.726 202.908 60.622 203.029 60.414L203.133 60.466C203.133 60.7607 203.038 61.0293 202.847 61.272C202.657 61.5147 202.418 61.7097 202.132 61.857C201.846 61.9957 201.56 62.065 201.274 62.065ZM199.155 60.414C199.381 60.414 199.628 60.2147 199.896 59.816C200.174 59.4087 200.412 58.828 200.611 58.074C200.629 57.996 200.646 57.9223 200.663 57.853C200.681 57.775 200.694 57.7013 200.702 57.632C200.564 57.3113 200.416 57.086 200.26 56.956C200.113 56.8173 199.966 56.748 199.818 56.748C199.602 56.748 199.398 56.865 199.207 57.099C199.025 57.3243 198.874 57.6103 198.752 57.957C198.64 58.3037 198.583 58.6503 198.583 58.997C198.583 59.4737 198.635 59.829 198.739 60.063C198.852 60.297 198.991 60.414 199.155 60.414ZM205.802 62.052C205.525 62.052 205.261 61.9913 205.009 61.87C204.767 61.74 204.567 61.5407 204.411 61.272C204.264 61.0033 204.19 60.661 204.19 60.245C204.19 60.0197 204.212 59.725 204.255 59.361C204.299 58.997 204.355 58.5983 204.424 58.165C204.502 57.7317 204.58 57.2983 204.658 56.865C204.485 56.8737 204.316 56.891 204.151 56.917C203.995 56.943 203.839 56.9733 203.683 57.008L203.657 56.917C203.831 56.709 204.013 56.5313 204.203 56.384C204.394 56.2367 204.593 56.1153 204.801 56.02C204.914 55.448 205.009 54.954 205.087 54.538C205.165 54.1133 205.204 53.862 205.204 53.784C205.204 53.6367 205.317 53.5153 205.542 53.42C205.776 53.3247 206.036 53.277 206.322 53.277C206.574 53.277 206.808 53.3247 207.024 53.42C207.25 53.5153 207.401 53.6757 207.479 53.901C207.427 53.953 207.354 54.148 207.258 54.486C207.163 54.8153 207.063 55.2183 206.959 55.695C207.124 55.7037 207.293 55.7123 207.466 55.721C207.64 55.7297 207.817 55.7427 207.999 55.76C208.017 55.812 208.03 55.8683 208.038 55.929C208.047 55.9897 208.051 56.0547 208.051 56.124C208.051 56.254 208.03 56.397 207.986 56.553C207.952 56.7003 207.908 56.8347 207.856 56.956C207.648 56.9387 207.453 56.9213 207.271 56.904C207.089 56.878 206.912 56.8607 206.738 56.852C206.669 57.2247 206.604 57.5973 206.543 57.97C206.491 58.3427 206.448 58.6807 206.413 58.984C206.387 59.2873 206.374 59.5257 206.374 59.699C206.374 60.063 206.439 60.3057 206.569 60.427C206.708 60.5483 206.873 60.609 207.063 60.609C207.237 60.609 207.393 60.5743 207.531 60.505C207.67 60.4357 207.77 60.3533 207.83 60.258L207.96 60.297C207.908 60.6523 207.77 60.9643 207.544 61.233C207.319 61.493 207.05 61.6967 206.738 61.844C206.426 61.9827 206.114 62.052 205.802 62.052Z" fill="white"/>
<defs>
<filter id="filter0_d_4_20" x="0" y="0" width="329" height="90" filterUnits="userSpaceOnUse" color-interpolation-filters="sRGB">
<feFlood flood-opacity="0" result="BackgroundImageFix"/>
<feColorMatrix in="SourceAlpha" type="matrix" values="0 0 0 0 0 0 0 0 0 0 0 0 0 0 0 0 0 0 127 0" result="hardAlpha"/>
<feOffset dy="4"/>
<feGaussianBlur stdDeviation="2"/>
<feComposite in2="hardAlpha" operator="out"/>
<feColorMatrix type="matrix" values="0 0 0 0 0 0 0 0 0 0 0 0 0 0 0 0 0 0 0.25 0"/>
<feBlend mode="normal" in2="BackgroundImageFix" result="effect1_dropShadow_4_20"/>
<feBlend mode="normal" in="SourceGraphic" in2="effect1_dropShadow_4_20" result="shape"/>
</filter>
</defs>
</svg>
